<svg version="1.1" xmlns="http://www.w3.org/2000/svg" viewBox="0 0 1743 684" width="1743" height="684">
  <!-- svg-source:excalidraw -->
  
  <defs>
    <style>
      @font-face {
        font-family: "Virgil";
        src: url("https://excalidraw.com/Virgil.woff2");
      }
      @font-face {
        font-family: "Cascadia";
        src: url("https://excalidraw.com/Cascadia.woff2");
      }
    </style>
  </defs>
  <rect x="0" y="0" width="1743" height="684" fill="#ffffff"></rect><g stroke-linecap="round" transform="translate(754 351) rotate(0 290 161.5)"><path d="M14.11 110.32 C14.11 110.32, 14.11 110.32, 14.11 110.32 M14.11 110.32 C14.11 110.32, 14.11 110.32, 14.11 110.32 M7.96 117.02 C17.2 106.8, 28.29 96.83, 50.18 72.23 M12.26 119.61 C25.98 105.86, 39.95 89.24, 50.22 74.17 M8.66 132.63 C22.69 117.3, 33.75 97.25, 60.53 61.83 M7.47 128.71 C21.79 112.17, 33.44 98.25, 63.41 65.74 M1.73 137.62 C28.18 110.35, 56.75 74.21, 77.76 59.32 M5.92 139.64 C25 115.33, 51.54 88.33, 77.35 57.96 M1.02 151.15 C27.05 121.57, 46.39 99.86, 84.71 47.1 M2.16 148.76 C25.99 121.45, 53.63 90.77, 89.64 50.65 M-0.37 153.59 C24.51 130.51, 53.13 94.84, 96.43 42.49 M2.38 154.77 C30.29 125.35, 55.68 95.99, 98.13 42.95 M0.58 158.98 C30.29 128.87, 65.18 89.06, 102.64 40.52 M3.2 161.95 C29.42 130.62, 56.6 100.79, 105.55 40.95 M3.87 168.57 C36.67 124.01, 68.97 82.1, 112.95 38.81 M0.97 166.54 C38.91 122.98, 76.79 81.42, 112.95 37.39 M0.41 175.46 C53.65 116.96, 92.8 68.03, 125.42 35.23 M1.88 172.18 C39.35 133.5, 72.04 96.32, 122.43 34.1 M0.56 181.74 C38.71 138.06, 71.49 101.84, 130.45 30.3 M0.63 179.85 C47.26 130.89, 89.9 78.24, 129.24 31.24 M3.87 186.81 C52.81 123.11, 100.23 70.16, 139.25 28.19 M2.65 183.42 C37.55 149.55, 68.12 113.09, 140.28 29.03 M4.14 190.07 C41.5 147.72, 77.9 105.43, 148.38 22.96 M2.6 190.97 C48.03 138.25, 92.05 87.35, 147.62 24.96 M3.56 195 C45.57 140.49, 90.46 95.05, 154.05 20.83 M6.75 192.87 C41.74 152.87, 78.28 106.45, 154.91 21.31 M9.6 197.01 C56.01 143.4, 105.51 91.72, 161.88 21.45 M7.78 198.71 C59.27 138.09, 113.15 79.33, 162.5 19.9 M8.44 201.62 C72.5 132.53, 128.22 64.96, 166.67 21.33 M9.46 199.55 C64.88 137.39, 121.12 74.46, 166.6 19.12 M14.35 206.81 C48.51 165.08, 83.71 121.83, 175.43 17.67 M13.43 205.24 C58.41 151.89, 101.05 101.8, 175.51 16.71 M13.18 205.03 C58.99 156.27, 102.8 108.1, 178.13 15.3 M13.32 208.21 C48.75 162.14, 86.63 120.62, 178.91 17.53 M19.39 209.46 C69.55 152.64, 120.37 91.19, 185.54 13.49 M17.04 211.1 C62.07 153.02, 112.63 97.3, 185.89 16.2 M18.2 212.98 C79.89 141.06, 143.49 70.07, 191.45 15.88 M18.49 213.92 C59.67 164.69, 103.94 114.66, 192.22 14.31 M21.29 220.98 C77.15 157.49, 126.63 98.87, 197.7 10.84 M19.6 218.27 C73.21 160.41, 124.83 102.46, 198.98 12.15 M25.32 221.32 C80.15 158.13, 134.44 92.67, 206.35 9.36 M24.08 221.74 C72.08 159.57, 125.94 101.45, 206.67 12.51 M22.97 228.15 C93.9 145.93, 162.72 68.48, 209.75 8.94 M24.71 225.02 C81.11 161.88, 135.57 99.41, 211.52 9.22 M27.65 230.77 C82.88 167.62, 136.6 106.19, 220 6.43 M28.73 229.29 C76.9 171.1, 125.13 116.88, 218.21 9.29 M29.57 230.11 C94.5 155.89, 157.52 77.88, 225.4 9.25 M30.58 233.25 C83.64 169.62, 139.85 106.4, 223.83 6.94 M33.86 235.17 C101.76 155.53, 166.78 80.45, 234.08 8.61 M32.08 235.46 C113.82 143.62, 188.43 54.26, 232.94 5.51 M34.09 234.5 C96.75 168.38, 156.74 101.83, 236.09 4.33 M35.25 235.66 C100.46 162.91, 166.97 85, 237.78 5.34 M39.36 238.12 C88.46 183.56, 135.98 125.03, 241.88 5.12 M40.36 240.45 C112.04 154.07, 186.78 69.89, 243.76 5.28 M40.82 239.72 C109.73 165.62, 177 89.05, 249.6 7.76 M43.16 240.89 C97.7 175.26, 157.01 110.74, 248.53 4.16 M44.12 246.35 C86.89 196.04, 131.65 145.73, 253.2 5.45 M44.38 247.02 C122.63 157.85, 198.94 67.95, 254.28 3.59 M50.32 249.85 C90.27 198.62, 133.59 145.17, 257.88 4.76 M46.49 248.38 C102.85 186.73, 158.04 121.94, 260.56 4.23 M50.84 248.6 C102.03 196.32, 147.76 141.1, 264.29 5.83 M51.27 251.8 C105.88 190.06, 159 129.33, 264.51 3.8 M53.55 252.62 C123.04 171, 194.6 89.78, 272.79 2.71 M54.17 253.72 C135.74 161.9, 215.99 67.62, 270.51 4.66 M58.27 256.74 C124.23 180.85, 191.31 101.93, 279.27 2.67 M56.23 256.91 C133.79 168.31, 211.29 81.84, 276.41 3.37 M58.47 260.16 C140.78 167.21, 218.44 75.72, 284.69 4.27 M61.17 260.09 C110.77 202.19, 157.52 150.08, 283.24 3.7 M61.33 261.05 C147.43 164.1, 234.63 65.66, 285.48 0.48 M63.34 262.7 C125.41 191.53, 183.48 123.76, 287.12 3.62 M66.63 265.25 C149.39 167.55, 237.64 65.66, 293.98 -0.73 M65.98 263.65 C142.81 178.41, 218.23 89.73, 294.65 2.01 M69.08 266.72 C134.28 191.04, 205.56 113.65, 299.95 2.53 M69.77 267.26 C141.47 183.18, 211.8 102.98, 299.1 2.18 M74.44 267.65 C155.94 180.15, 235.54 87.9, 304.35 2.93 M72.35 269.74 C160.53 163.05, 250.47 60.44, 306.05 2.23 M76.71 267.99 C165.89 169.37, 253.5 68.87, 309.18 2.75 M76.76 271.55 C126.6 207.54, 178.79 146.6, 309.43 1.58 M78.7 274.65 C127.89 214.54, 174.45 158.79, 314.87 -0.07 M79.89 271.69 C169.94 163.02, 263.29 57.22, 314.73 1.81 M85.46 276.13 C137.64 213.18, 192.76 151.06, 322.12 0.23 M84.07 274.68 C151.67 191.07, 224.3 107.28, 319.15 1.34 M85.2 275.81 C147.27 211.1, 206.47 139.93, 325.5 1.94 M86.9 275.86 C153.78 203.62, 216.09 132.04, 325.65 2.43 M93.53 276.58 C182.82 174.32, 271.51 68.14, 329.86 3.69 M90.18 278.53 C145.54 214.72, 203.67 149.64, 330.4 4.16 M94.04 278.48 C170.14 195.6, 238.88 111.38, 333.78 4.52 M94.84 279.35 C163.35 203.91, 228.66 125.3, 334.14 4.3 M96.76 284.51 C158.3 215.81, 215.35 146.72, 341.4 0.75 M96.65 283.51 C161.49 204.06, 226.37 126.92, 340.29 4.18 M101.66 285.4 C179.91 194.77, 259.72 107.25, 343.7 3.8 M101.3 284.82 C148.21 229.7, 197.78 173.75, 346.18 3.52 M103.66 283.97 C180.54 195.32, 262.61 103.57, 348.22 3.71 M104.38 286.96 C170.5 210.45, 237.34 133.71, 349.55 3.93 M110.98 289.54 C169.97 225.12, 225.49 154.05, 355.4 1.85 M108.89 288.69 C200.17 183.15, 293.62 76.08, 354.55 3.85 M113.89 289.55 C165.58 231.12, 218.46 168.94, 360.49 2.72 M113.49 288.87 C171.19 221.76, 227.8 155.4, 360.12 5.77 M115.18 291.08 C190.5 204.81, 264.33 122.49, 366.84 4.34 M115.15 291.88 C167.46 225.75, 224.89 161.82, 366.21 5.82 M118.28 292.47 C174.63 231.39, 230.92 167.19, 371.84 6.41 M119.23 293.21 C214.75 186.02, 307.98 79.67, 370.73 7.24 M122.16 296.5 C207.77 204.45, 287.3 106.29, 372.46 8.12 M123.63 295.51 C210.99 195.87, 300.26 94.21, 375.15 7.78 M128.53 298.18 C216.06 197.58, 299.25 100.75, 378.71 8.05 M128.52 295.63 C192.44 219.71, 257.04 146.93, 377.78 7.36 M133.26 296.22 C197.49 217.02, 268.11 141.78, 384.36 8.26 M131.36 296.53 C193.35 229.75, 253.92 161.97, 382.8 9.05 M137.38 300.14 C200.23 224.75, 267.56 151.46, 387.19 12.03 M135.76 299.46 C203.99 221.31, 271.14 144.51, 386.02 10.09 M141.37 301.08 C202 231.41, 259.83 159.74, 392.49 9.56 M139.78 301.4 C225.26 196.5, 315.39 95.33, 390.38 10.79 M144.64 300.29 C229.06 203.01, 319.15 100.64, 395.08 13.85 M145.2 301.44 C220.38 208.86, 300.5 116.69, 396.49 12.72 M149.34 303.72 C211.27 231.19, 275.58 158.36, 402.53 12.34 M148.21 303.01 C201.81 238.66, 259.29 172.13, 399.73 12.56 M153.61 303.89 C225.14 217.16, 305.13 130.22, 405.12 15.27 M154.3 304.51 C241.96 201.42, 329.86 100.04, 404.31 15.16 M156.88 306.84 C238.19 215.05, 318.34 122.2, 411.73 13.16 M156.25 305.38 C254.1 196.17, 351.67 82.22, 409.44 14.17 M161.16 305.41 C230.71 225.18, 303.94 142.46, 415.18 15.48 M161.67 307.2 C222.89 238.45, 285.87 168.55, 413.85 16.94 M163.5 309.99 C255.12 207.95, 344.06 105.89, 420.02 16.86 M165.47 309.27 C229.93 238.22, 289.76 167.91, 417.67 17.07 M171.57 307.61 C260.52 202.63, 358.95 90.52, 424.69 18.38 M170.2 309.7 C244.33 223.76, 320.54 136.45, 422.48 18.67 M175.7 312.52 C236.83 236.07, 301.95 165.06, 425.01 18.28 M173.66 311.51 C263 208.28, 354.26 103.48, 427.79 19.1 M180.09 310.24 C260.02 221.91, 342.35 125.45, 430.18 18.3 M178.89 313.19 C269.14 210.86, 356.31 108.48, 431.7 20.69 M182.95 313.67 C239.66 245.19, 298.69 178.33, 435.14 22.04 M182.67 313.45 C237.72 253.77, 290.72 190.72, 436.65 21.22 M186.01 315.05 C237.96 255.32, 290.34 194, 439.27 24.27 M187.64 314.26 C252.96 234.67, 317.92 160.43, 438.51 22.59 M191.71 315.9 C263.53 231.83, 337.19 149.43, 444.42 25.79 M191.11 313.61 C249.89 249.13, 308.69 183.11, 443.71 26.17 M197.8 316.89 C286.35 207.61, 378.14 105.43, 445.85 27.3 M196.51 315.96 C254.78 253.44, 309.19 188.66, 447.31 27.03 M200.35 313.32 C272.32 230.64, 342.64 146.4, 452.84 26.9 M201.11 316.31 C284.85 216.58, 370.07 119.6, 451.23 27.41 M207.69 314.01 C266.1 240.86, 334.43 164.77, 455.59 27.57 M207.55 315.9 C270.15 244.59, 332.27 172.53, 453.94 30.42 M210.04 317.65 C292.89 223.94, 375.75 129.15, 460.15 30.02 M211.57 315.87 C267.53 251.6, 326.95 182.01, 459.34 32.1 M213.7 315.26 C268.13 252.85, 323.32 189.31, 463.71 32.52 M214.74 316.66 C294.54 229.99, 372 138.99, 462.73 33.78 M219.08 316.55 C268.77 261.84, 320.29 206.59, 466.81 36.15 M220.65 318.38 C293.38 231.92, 368.52 144.81, 465.69 34.55 M226.23 318.8 C298.64 227.64, 378.84 138.14, 472.54 34.95 M226.02 317.75 C320.6 211.72, 416.57 102.43, 471.76 36.54 M228.11 321.53 C298.55 240.76, 364.47 166.77, 473.57 37.8 M229.93 318.67 C303.97 233.84, 378.53 148.49, 475.95 36.79 M234.64 321.4 C299.1 248.18, 360.26 172.83, 476.66 42.03 M236.03 319.03 C326.53 213.29, 416.87 109.53, 478.45 40.35 M241.74 322.25 C292.73 263.12, 344.51 198.82, 484.87 40.55 M239.9 321.2 C303.39 247.77, 368.73 171.76, 481.53 39.9 M246.5 323.15 C311.49 236.18, 383.26 156.63, 486.78 41.43 M244.55 321.8 C299.7 261.47, 351.46 200.08, 487.61 43.09 M250.01 319.69 C322.94 234.19, 394.95 150.47, 488.64 43.8 M249.78 320.89 C299.11 260.56, 353.29 198.88, 489.69 45.29 M256.2 318.95 C336.19 229, 419.74 134.85, 493.33 48.35 M255.94 321.43 C302 264.08, 350.59 208.56, 493.39 45.4 M261.29 323.55 C329.2 243.86, 398.3 163.27, 498.92 47.28 M259.77 321.05 C321.4 249.48, 383.5 179.96, 496.03 47.79 M265.41 318.59 C318.32 256.19, 371.87 195.53, 502.39 49.05 M266.22 321.16 C317.07 264.42, 366.74 205.46, 501.73 49.9 M271.93 322.14 C349.63 233.21, 425.95 144.64, 503.75 53.66 M271.47 322.29 C328.31 251.91, 386.62 182.27, 502.92 54.34 M274.79 319.87 C336.81 250.86, 397.28 177.74, 507.61 53.99 M275.71 321.33 C341.4 248.4, 408.07 171.35, 505.98 55.78 M282.62 321.7 C348.65 247.1, 415.55 166.51, 511.35 57.37 M280.59 322.92 C367.94 221.63, 453.48 123.93, 509.51 59.17 M287.18 320.08 C353.99 249.95, 414.79 178.39, 511.52 61.76 M286.08 322.49 C350.55 246.93, 413.96 172.99, 514.69 58.79 M291 322.94 C338.56 268.51, 383.93 216.3, 518.04 61.59 M291.13 321.7 C367.34 233.1, 445.04 141.64, 516.14 61.84 M298.37 320.25 C377.64 230.7, 462.94 136.45, 518.9 65.49 M294.99 322.97 C382.96 223.15, 469.68 122.64, 520.29 64.75 M299.33 324.25 C352.55 260.38, 407.16 204.41, 526.68 64.83 M301.25 322.87 C388.84 221.68, 476.13 120.95, 523.8 65.54 M308.05 325.02 C382.14 237.98, 454.39 153.87, 528.91 71.21 M305.97 322.38 C357.75 263.38, 407.25 203.64, 526.1 67.48 M311.5 324.18 C372.94 247.18, 443.02 171.72, 531.02 71.71 M311.64 324.18 C377.75 246.8, 447.38 170.17, 530.08 70.94 M316.73 323.76 C373.47 256.99, 437.49 187.36, 531.87 74.29 M315.85 323.06 C391.14 233.19, 464.39 146.92, 534.92 73.78 M322.8 321.09 C371.58 263.99, 423.69 203.93, 538.26 75.07 M322.25 323.05 C402.85 228.82, 484.02 133, 537.17 75.42 M329.88 324.7 C413.63 226.32, 494.12 127.07, 538.48 78.72 M328.12 322.58 C396.88 240.64, 466.09 163.31, 538.59 78.87 M333.86 320.74 C398.67 255.13, 457.38 185.72, 540.23 79.97 M334.26 319.88 C385.83 261.29, 435.12 203.03, 543.28 82.47 M340.08 318.09 C418.52 230.49, 496.74 139.79, 545.56 82.92 M339.37 321.6 C398.05 260.66, 452.68 195.47, 544.62 85.78 M343.52 316.76 C422.91 230.21, 496.54 145.94, 545.2 87.73 M347.01 319.52 C394.43 263.91, 446.92 204.99, 548.29 86.52 M351.06 318.66 C394.57 273.19, 438.47 219.74, 551.72 90.7 M351 320.54 C413.8 246.53, 475.29 174.18, 549.99 90.07 M359.43 318.6 C394.48 272.19, 436.86 225.09, 550.05 97.1 M358.04 318.47 C415.56 249.61, 476.49 178.6, 552.23 95.58 M365.57 316.2 C437.49 235.14, 508.77 152.19, 554.36 98.12 M363.67 316.53 C428.76 241.07, 493.38 165.82, 556.05 99.49 M367.41 319.14 C409.78 272.91, 442.68 228.76, 555.03 98.82 M369.18 316.44 C411.99 271.27, 453.97 220.82, 557.82 102.07 M375.92 312.4 C421.89 265.3, 465.71 214.79, 558.9 106.76 M375.66 316.8 C419.44 266.42, 461.44 217.08, 561.62 105.32 M382.28 313.54 C453.33 237.6, 524.71 154.73, 561.66 109.04 M383.13 314.34 C446.32 239.4, 509.49 163.91, 563.69 107.55 M388.27 315.99 C437.08 257.32, 485.17 202.17, 564.73 108.79 M387.67 313.29 C427.28 267.74, 468.06 222.38, 564.92 110.23 M391.09 315.37 C436.53 267.7, 480.43 220.24, 568.94 112.02 M395.65 312.88 C458 241.76, 523.79 167.01, 567.8 112.58 M400.87 308.4 C442.6 257.46, 491.34 208.55, 573.97 114.07 M400.58 311.37 C462.16 237.96, 524.9 165.32, 571.34 114.51 M408.24 306.37 C455.93 254.52, 501.93 201.64, 570.1 118.56 M409.34 307.05 C457.17 253.31, 505.9 198.81, 572.59 122.22 M414.54 308.7 C456.81 259.95, 493.81 217.19, 570.93 128.66 M415.39 306.01 C452.85 259.5, 494.96 214.3, 571.9 126.7 M424.76 301.61 C473.17 248.89, 524.49 194.81, 573.54 133.87 M425.3 303.08 C457.56 260.39, 495.02 216.47, 575.5 129.03 M434.84 302.59 C489.16 232.47, 550.22 170.02, 574.5 137.65 M429.85 301.04 C471.73 253.62, 517.48 202.92, 573.99 136.2 M442.5 300.98 C487.77 245.25, 531.84 197.08, 575.71 136.89 M440.84 299.28 C483.63 245.19, 528.13 194.3, 575.14 138.76 M448.33 295.41 C492.75 239.36, 532.57 186.84, 576.7 142.5 M447.38 296.46 C477.56 261.13, 509.5 222.53, 577.68 145.63 M457.27 291.89 C506.09 232.77, 555.08 178.38, 576.38 146.45 M453.28 292.08 C490.65 253.26, 526.76 209.16, 580.24 150.85 M457.51 293.83 C492.49 257.98, 518.35 215.46, 579.15 152.12 M458.93 293.4 C490.12 258.01, 519.29 219.86, 580.6 155.96 M468.89 287.91 C512.34 238.3, 556.65 189.92, 580.11 161.63 M467.12 288.09 C501.33 255.22, 532.54 217.13, 578.36 162.19 M476.63 287.74 C518.28 244.16, 559.38 198.16, 574.07 166.35 M477.34 285.93 C503.43 253.42, 533.46 222.42, 577.61 168.26 M482.54 278.41 C517.26 249.25, 541.74 217.67, 574.06 174.5 M486.98 280.32 C523.28 242.07, 558.07 204, 577.7 177.21 M498.24 277.88 C512.9 254.09, 537.98 226.07, 577.75 186.05 M492.8 276.41 C526.82 238.68, 557.58 202.78, 573.85 184.03 M507.02 277.06 C527.92 241.62, 557.18 211.56, 570.77 187.82 M503 272.1 C529.16 244.12, 555.16 215.25, 576.65 189.63 M510.44 271.26 C533.23 247.5, 545.81 226.54, 579.78 193.88 M511.91 268.16 C532.75 245.15, 550.82 221.37, 575.36 194 M530.01 255.2 C541.53 237.88, 557.11 224.4, 562.74 212.25 M531.96 252.2 C541.81 239.99, 555.39 227.65, 568.29 213.79" stroke="#228be6" stroke-width="0.5" fill="none"></path><path d="M222.97 5.04 C243.67 -0.3, 269.2 0.08, 293.28 -0.11 C317.36 -0.3, 344.36 0.6, 367.43 3.89 C390.51 7.19, 411.33 12.98, 431.75 19.66 C452.16 26.34, 472.35 34.75, 489.9 43.99 C507.45 53.22, 524.05 63.43, 537.02 75.06 C550 86.69, 560.89 100.45, 567.74 113.77 C574.59 127.1, 577.13 141.8, 578.13 155.01 C579.13 168.21, 578.19 180.06, 573.72 193 C569.25 205.94, 561.79 220.34, 551.29 232.66 C540.78 244.97, 526.47 257.01, 510.68 266.91 C494.88 276.81, 475.99 284.37, 456.53 292.07 C437.07 299.77, 416.34 307.96, 393.91 313.12 C371.48 318.28, 346.04 321.88, 321.94 323.04 C297.85 324.2, 273.01 322.09, 249.34 320.05 C225.68 318.02, 202.13 315.57, 179.96 310.86 C157.78 306.14, 135.44 299.6, 116.3 291.79 C97.15 283.99, 80.33 274.89, 65.07 264.02 C49.8 253.15, 35.05 238.67, 24.73 226.6 C14.4 214.53, 7.05 204.51, 3.11 191.59 C-0.83 178.67, -0.78 162.63, 1.06 149.07 C2.91 135.51, 6.26 123.01, 14.2 110.22 C22.13 97.42, 35.19 83.71, 48.67 72.29 C62.14 60.87, 77.78 50.57, 95.05 41.69 C112.32 32.81, 127.3 25.37, 152.29 18.99 C177.28 12.62, 225.38 6.17, 245.02 3.43 C264.65 0.69, 269.63 -0.13, 270.1 2.57 M456.56 30.16 C478.8 35.22, 497.03 47.81, 512.8 57.8 C528.58 67.79, 541.41 78.08, 551.23 90.11 C561.04 102.14, 566.91 116.63, 571.7 129.96 C576.49 143.29, 580.99 157.08, 579.94 170.09 C578.89 183.1, 572.71 195.39, 565.38 208.02 C558.06 220.65, 548.56 234.66, 535.99 245.87 C523.42 257.08, 507.23 266.04, 489.99 275.28 C472.74 284.51, 453.3 294.64, 432.51 301.27 C411.72 307.9, 387.84 311.29, 365.24 315.06 C342.64 318.84, 320.97 323.45, 296.91 323.92 C272.84 324.4, 244.42 320.96, 220.85 317.91 C197.28 314.87, 176 311.81, 155.5 305.66 C135.01 299.52, 116.11 289.85, 97.87 281.05 C79.63 272.25, 59.24 264.46, 46.07 252.86 C32.9 241.25, 26.49 224.2, 18.85 211.43 C11.21 198.66, 2.18 189.4, 0.21 176.25 C-1.75 163.09, 2.44 145.77, 7.04 132.5 C11.65 119.24, 18.93 108.91, 27.84 96.67 C36.76 84.43, 45.62 69.94, 60.52 59.06 C75.43 48.18, 97.62 39.01, 117.28 31.4 C136.94 23.78, 157.08 17.89, 178.5 13.38 C199.91 8.86, 222.2 6.58, 245.77 4.3 C269.33 2.01, 295.19 -1.09, 319.89 -0.31 C344.59 0.47, 371.38 4.22, 393.97 8.99 C416.56 13.75, 445.77 24.18, 455.42 28.26 C465.08 32.33, 454.68 31.47, 451.9 33.41" stroke="#000000" stroke-width="1" fill="none"></path></g><g stroke-linecap="round" transform="translate(970 118.61701376725193) rotate(0 83.5 38.5)"><path d="M0 0 C0 0, 0 0, 0 0 M0 0 C0 0, 0 0, 0 0 M0.36 6.07 C0.76 5.24, 1.84 3.37, 5.51 0.76 M-0.35 6.18 C1.67 3.94, 3.14 2.5, 5.15 0.2 M-0.96 11.75 C5.54 8.58, 8.3 2.02, 10.27 0.83 M-0.45 11.54 C2.83 9.24, 5.48 5.92, 11.06 -0.8 M-0.25 17.63 C3.08 16.1, 6.68 8.43, 15.88 0.1 M-1.12 18.57 C4.82 11.46, 9.91 6.64, 14.95 0.58 M1.76 22.73 C6.97 17.89, 13.29 10.54, 20.54 1.92 M-0.14 24.65 C5.18 18.7, 10.34 13.77, 21.04 -1.01 M1.91 30.06 C7.59 17.96, 17.97 9.04, 27.6 2 M0.61 30.77 C7.67 21.3, 16.22 12.06, 27.25 -0.29 M0.68 37.01 C10.84 23.85, 25.11 7.38, 33.17 -0.3 M-0.78 36.19 C11.11 23.12, 24.12 8.86, 32.05 -0.07 M1.11 43.39 C11.42 32.13, 18.35 20.77, 36.02 0.12 M-0.38 43.13 C11.41 31.54, 21.61 19.23, 36.25 0.14 M-1.94 49.45 C16.35 29.77, 35.21 11.16, 44.01 1.84 M0.44 48.63 C9.44 36.36, 18.96 26.19, 42.11 0.77 M-0.06 56.45 C16.84 35.34, 35.65 15.98, 47.98 -1.2 M-0.47 53.9 C18.17 36.24, 34.92 15.19, 47.05 -0.25 M-1.31 60.5 C11.74 44.27, 26.31 32.16, 52.23 0.06 M-0.36 61.92 C19.3 39.39, 37.12 19.07, 52.76 -0.91 M-0.47 69.09 C11.08 51.38, 27.54 38.1, 56.48 -0.34 M-1.1 66.75 C12.84 53.99, 23.95 40.42, 58.89 0.53 M-1.79 71.17 C17.24 53.73, 30.77 37.7, 62.23 0.37 M-0.24 73.38 C21.67 47.07, 44.03 20.48, 64.18 0.07 M1.52 79.69 C17.1 59.97, 32.89 39.51, 66.78 -0.41 M0.23 77.12 C23.51 52.81, 44.77 27.27, 68.15 -0.4 M6.41 78.93 C33.21 50.32, 55.87 20.24, 73.61 1.07 M6.76 78.63 C28.51 52.92, 49.45 28.62, 74.2 -0.51 M11.35 77.6 C30.63 54.44, 48.21 32.95, 78.34 0.79 M12.26 77.83 C26.04 62.74, 39.96 46.51, 79.35 0.18 M16.06 78.86 C39.13 49.8, 62.89 23.62, 83.19 -1.27 M17.55 77.71 C43.55 48.23, 69.21 17.26, 85.29 -1.25 M23.3 77.35 C39.95 55.78, 61.51 35.57, 90.86 0.71 M21.94 78.14 C47.69 47.01, 72.81 17.95, 90.15 0.58 M28.88 77.07 C54.3 47.11, 78.54 16.45, 95.02 -1.8 M26.87 77.54 C53.89 48.31, 78.7 19.8, 95.56 -0.14 M32.04 79.15 C47.7 61.42, 61.83 45.48, 102.23 -1.89 M33.07 77.38 C55.74 51.03, 80.1 24.95, 100.36 -0.74 M37.4 79.69 C54.46 60.24, 71.98 40.91, 106.37 -1.39 M38.22 77.88 C62.44 49.6, 86.17 22.76, 105.74 0.44 M45.44 77.53 C66.48 50.91, 91.58 21.27, 110.58 -1.01 M44.1 78.48 C62.5 56.77, 79.8 36.59, 110.91 -0.26 M50.37 76.12 C69.94 52.19, 93.12 27.37, 117.05 0.15 M48.23 77.57 C65.53 60.77, 81.78 40.38, 115.57 -0.54 M54.62 79.27 C71.64 58.72, 86.63 40.76, 120.24 -1.32 M55.08 76.98 C71.56 56.32, 90 37.6, 122.89 -0.3 M58.75 77.03 C76.62 55.64, 98.03 35.65, 126.08 -1.01 M59.67 77.6 C74.74 59.69, 92.11 41.67, 127.4 1.25 M63.9 77.44 C78.81 61.52, 95.11 43.69, 131.78 -0.24 M64.75 78.01 C85.49 53.3, 105.89 29.55, 132.53 -0.11 M69.73 76.39 C91.72 54.21, 109.68 32.32, 137.73 1.87 M70.45 78.03 C96.7 49.64, 120.8 21.02, 137.24 1.01 M76.84 77.4 C101.21 46.41, 128.41 17.48, 143.98 -1.9 M75.45 77.34 C99.23 50.07, 123.89 22.26, 142.18 -0.82 M80.71 77.45 C97.01 58.14, 115.24 39.28, 150.13 1.05 M80.62 77.05 C106.73 49.59, 130.43 19.25, 148.38 0.79 M86.18 78.78 C101.01 59.54, 116.3 45.12, 151.83 0.86 M86.18 78.33 C101.17 61.13, 113.94 45.04, 153.36 -0.43 M89.32 78.73 C119.16 46.42, 143.16 18.11, 160.64 1.08 M91.38 77.96 C105.57 61.36, 118.72 44.08, 157.8 -0.75 M95.26 78.26 C117.74 51.86, 138.37 26.55, 164.55 0.45 M96.93 77.72 C110.96 60.35, 126.86 43.28, 163.71 -0.87 M103.39 76.04 C126.8 49.94, 153.61 19, 167.19 1.52 M102.05 78.17 C123.2 52.82, 144.46 28.36, 168.42 1.43 M106.59 76.52 C125 57.29, 144.05 35.41, 169.02 8.15 M106.29 77.57 C121.79 62.24, 136.02 45.69, 169.45 6.63 M110.99 76.47 C129.55 55.81, 149.23 34.67, 169.71 12.81 M113.12 78.18 C134.24 54.4, 153.66 29.42, 167.63 13.52 M115.93 76.8 C134.19 60.26, 151.56 39.04, 167.51 17.93 M116.52 78.85 C129.78 64.26, 140.88 50.77, 168.14 20.35 M122.39 76.38 C136.23 62.2, 149.48 46.5, 166.38 27.5 M123.19 78.62 C138.94 59.38, 154.93 40.04, 168.45 25.18 M128.93 79.86 C141.14 64.71, 153.26 52.4, 167.83 29.54 M127.17 77.34 C138.74 65.45, 147.56 55.13, 167.78 32.18 M132.1 79.44 C145.57 64.88, 152.25 54.88, 166.78 36 M134.02 77.22 C142.57 66.64, 151.91 56.88, 167.75 38.27 M138.43 78.73 C147.81 67.59, 156.82 57.52, 167.42 45.28 M139.46 77.47 C148.6 67.4, 157.52 57.3, 167.92 43.42 M144.82 78.56 C153.65 67.49, 160.49 59.31, 170.36 50.28 M143.51 77.83 C154.43 66.06, 161.88 56.7, 167.68 49.51 M150.52 76.75 C155.33 70.31, 164.44 61.89, 169.89 56.5 M149.21 77.25 C154.43 73.12, 158.39 66.61, 169.22 56.19 M153.5 77.96 C159.72 72.53, 160.33 71.56, 167.78 62.55 M154.7 77.4 C157.54 73.61, 161.84 69.93, 168.03 62.2 M159.01 77.73 C163.34 75.01, 167.3 71.55, 167.62 69.44 M159.94 77.6 C162.77 74.3, 166.47 71.75, 168.52 68.75 M165.56 78.01 C165.95 77.14, 167.19 76.22, 167.86 74.99 M165.46 77.58 C166.39 77.01, 167.01 76.33, 168.32 74.58" stroke="#fab005" stroke-width="0.5" fill="none"></path><path d="M-1.25 0.34 C40.37 -2.8, 77.43 -1.04, 167.71 -0.47 M-0.74 -0.13 C35.73 -1.5, 71.31 -1.25, 167.24 -0.78 M167.61 1.46 C165.56 19.49, 168.34 38.92, 167.45 78.13 M166.73 -0.01 C167.14 22.89, 167.42 45.39, 167.65 77.23 M165.94 76.71 C132.56 76.59, 95.22 77.42, -0.83 78.59 M167.4 77.85 C101.85 76.78, 36.36 75.3, 0.07 76.06 M0.76 76.25 C-0.69 46.34, -2.06 19.9, 0.08 1.62 M-0.43 77.23 C0.75 54.91, 0.41 35.27, 0.4 0.77" stroke="#000000" stroke-width="1" fill="none"></path></g><g transform="translate(1020.5 144.61701376725193) rotate(0 33 12.5)"><text x="33" y="18" font-family="Virgil, Segoe UI Emoji" font-size="20px" fill="#000000" text-anchor="middle" style="white-space: pre;" direction="ltr">main.py</text></g><g stroke-linecap="round" transform="translate(213 62.61701376725193) rotate(0 56 71.5)"><path d="M0 0 C0 0, 0 0, 0 0 M0 0 C0 0, 0 0, 0 0 M-0.44 5.96 C1 4.27, 4.22 1.56, 5.08 0.75 M0.12 6.79 C1.45 4.52, 3.59 2.23, 4.69 0.05 M1.52 10.45 C1.72 10.11, 5.78 4.51, 10.2 -1.59 M-0.36 12.59 C2.88 9.51, 5.16 7.55, 10.9 -0.41 M-1.96 19.11 C2.98 12.12, 9.46 7.85, 16.2 1.37 M0.25 18.01 C5.73 11.43, 10.64 5.75, 15.89 -0.33 M2.07 23.67 C6 17.75, 8.84 10.44, 20.7 0.45 M-0.5 24.52 C6.93 16.23, 13.45 8.22, 20.71 0.68 M0.69 32.39 C10.94 18.48, 19.82 7.79, 27.56 0.48 M0.38 31.41 C6.3 23.04, 13.29 14.06, 25.98 0.11 M-0.51 37.32 C10.64 21.58, 23.53 7.2, 32.56 -2 M-0.28 37.35 C10.53 25.58, 20.41 13.33, 31.95 0.43 M0.78 41.33 C13.32 25.35, 28.58 9.23, 35.88 2.07 M-0.37 42.65 C11.79 28.49, 22.69 16.69, 35.91 -0.04 M-0.59 47.54 C8.25 39.99, 18.32 28.17, 43.15 1.43 M0.2 48.46 C10.75 34.26, 23.25 21.33, 43.02 0.72 M-0.84 55.3 C14.82 35.21, 29.78 18.26, 46.01 1.75 M-0.37 55.4 C14.37 38.11, 29.91 21.31, 47.68 -0.6 M1.38 61.32 C19.69 38.97, 39.84 18.75, 51.21 0.72 M-0.39 60.49 C17.11 41.86, 34.95 21.28, 52.36 -0.8 M1.29 67.67 C18.76 48.14, 36.36 25.51, 57.1 1.36 M-0.52 67.76 C20.51 42.59, 42.97 18.02, 58.92 0.78 M-0.08 71.13 C17.44 52.72, 31.97 34.37, 62.76 -0.92 M0.88 73.44 C14.88 55.22, 30.39 37.53, 63.51 0.14 M-2.11 78.75 C27.32 47.17, 55.97 16.54, 68.54 -1.03 M-0.65 80.16 C23.72 54.72, 44.41 27.52, 67.85 -0.43 M1.83 85.66 C18.8 62.55, 38.47 39.9, 73.11 -1.09 M-0.46 84.5 C17.81 63.11, 38.14 41.74, 74.13 -0.53 M-1.03 90.35 C22.46 66.48, 47.2 36.53, 78.04 -1.15 M-0.46 90.98 C25 63.49, 50.22 34.44, 80.31 -0.62 M-0.49 96.56 C28.28 66.68, 55.28 34.79, 84.86 -0.13 M0.08 97.7 C25.86 66.61, 52.87 36.18, 84.98 -0.25 M-1.5 104.73 C26.12 72.11, 54.04 43.3, 91.59 1.5 M0.14 104.46 C19.66 81.35, 38.75 59.29, 90.73 0.96 M-0.36 109.45 C29.72 74.03, 62.09 38.46, 93.86 0.8 M-0.42 109.99 C34.83 70.38, 69.77 28.29, 94.94 -0.83 M-0.28 115.37 C32.17 79.32, 65.15 42.52, 101.44 1.64 M-0.67 116.5 C37.97 72.73, 73.46 32.1, 101.17 -0.78 M1.19 122.42 C36.29 79.71, 76.44 33.31, 107.28 -2.21 M0.74 122.69 C28.58 87.78, 57.93 53.97, 105.99 0.58 M0.52 129.73 C32.11 90.4, 67.21 55.45, 112.13 -1.8 M-0.25 128.36 C30.24 91.32, 60.43 55.39, 110.3 0.19 M0.08 133.04 C21.46 105.86, 44.28 81.3, 114.92 1.14 M-0.46 133.55 C36.36 90.58, 74.06 47.04, 113.6 3.47 M-2.01 140.21 C43.87 91.86, 84.71 40.57, 115.26 8.64 M0.12 140.72 C38.37 95.87, 77.17 50.56, 115.17 8.35 M-0.18 143.57 C33.01 107.87, 64.16 73.23, 115.24 13.41 M0.87 144.9 C37.14 105.33, 72 66.39, 113.71 15.01 M5.81 142.4 C35.07 111.17, 64.1 80.05, 113.89 21.8 M7.51 144.84 C37.81 108.66, 66.42 74.7, 114.6 20.49 M10.77 144.95 C42.79 112.38, 70.23 75.01, 113.11 25.27 M12.81 144.71 C35.34 118.05, 58.8 90.75, 115.52 26.9 M16.39 143.2 C55.91 100.41, 93.28 58.4, 116.01 34.26 M18.62 143.69 C45.78 110.76, 73.45 78.71, 113.7 33.04 M24.49 145.96 C57.59 105.64, 93.87 62.73, 112.81 37.68 M21.97 144.68 C41.03 121.41, 62.15 98.39, 115.45 38.55 M29.45 146.71 C47.59 119.84, 70.1 94.61, 112.61 44.32 M27.23 144.9 C58.55 108.86, 90.54 71.45, 114.88 45.1 M34.03 145.05 C64.09 110.28, 94.63 73.19, 115.89 50.79 M32.76 145.09 C49.08 125.44, 65.78 105.19, 114.03 51 M39.23 146.21 C58.62 120.7, 80.59 97.44, 114.98 58.75 M38.51 145.68 C60.4 117.34, 85.29 89.89, 114.21 58.16 M42.71 142.87 C68.07 117.22, 91.61 91.82, 114.54 62.77 M43.21 144.38 C61.51 123.94, 77.67 106.12, 114.23 62.69 M49.3 146.46 C63.29 126.33, 81.6 107.48, 115.35 67.81 M48.74 144.16 C70.54 120.22, 92.47 93.59, 114.99 70.1 M54.13 144.28 C68.5 131.49, 81.41 114.85, 116.19 76.69 M53.94 144.11 C78.31 118.03, 103.37 89.97, 115.12 75.44 M61.15 142.71 C80.93 121.95, 100.83 96.08, 116.22 79.96 M58.99 145.36 C75.63 127.34, 91.88 108.36, 114.16 80.94 M66.19 144.38 C84.13 124.35, 104.49 101.48, 113.58 87.15 M65.21 143.99 C77.27 131.66, 89.68 116.97, 114.91 87.96 M71.55 143.39 C80.99 131.18, 92.91 121.99, 115.74 92.65 M69.43 144.93 C79.38 134.12, 88 124.07, 114.6 94.6 M77.05 142.48 C90.07 128.6, 98.95 114.7, 113.4 99.18 M75.85 144.87 C90.78 127.57, 105.63 111.98, 114.55 99.87 M82.56 144.19 C91.05 133.74, 100.57 118.96, 116.29 107.26 M80.35 144.17 C94 129.84, 106.65 116.31, 114.77 106.87 M87.15 144.1 C94.57 131.76, 103.56 121.91, 113.6 111.06 M86.33 143.74 C94.1 135.12, 104.07 123.82, 114.14 111.41 M91.53 145.99 C95.87 140.7, 99.74 134.01, 114.56 119.68 M91.12 145 C96.62 139.57, 101.25 132.56, 113.77 118.94 M97.22 143 C101.64 140.28, 102.77 134.73, 112.78 125.01 M97.72 144.73 C103.39 136.76, 110.16 129.78, 115.19 125.22 M101.12 144.87 C107.17 140.67, 111.65 133.32, 114.22 131.19 M103.2 144.99 C105.88 141.07, 109.7 136.53, 114.94 129.45 M107.09 143.65 C110.65 140.29, 112.72 138.03, 114.62 137.42 M108.3 144.13 C110.44 142.04, 111.79 138.98, 114.38 136.46" stroke="#868e96" stroke-width="0.5" fill="none"></path><path d="M-0.42 -1.98 C28.61 -2.13, 60.64 0.28, 113.71 0 M0.29 -0.09 C37.53 -0.08, 75.22 0.33, 111.42 0.8 M112.14 -0.75 C111.56 57.92, 109.13 114.49, 111.81 144.48 M111.31 -0.77 C113.04 38.82, 112.62 77.39, 112.03 142.56 M112.87 144.71 C83.35 142.78, 53.43 142.69, -0.14 142.51 M112.61 143.81 C88.22 143.33, 62.87 141.79, -0.12 143.94 M0.53 142.68 C0.5 101.12, 1.24 57.29, 1.98 -1.23 M-0.29 142.8 C-1.13 87.66, 0.39 33.58, 0.91 0.56" stroke="#000000" stroke-width="1" fill="none"></path></g><g transform="translate(219 68.61701376725193) rotate(0 53 62.5)"><text x="0" y="18" font-family="Virgil, Segoe UI Emoji" font-size="20px" fill="#000000" text-anchor="start" style="white-space: pre;" direction="ltr">Tickers</text><text x="0" y="43" font-family="Virgil, Segoe UI Emoji" font-size="20px" fill="#000000" text-anchor="start" style="white-space: pre;" direction="ltr">'EQNR.OL'</text><text x="0" y="68" font-family="Virgil, Segoe UI Emoji" font-size="20px" fill="#000000" text-anchor="start" style="white-space: pre;" direction="ltr">'AKER.OL'</text><text x="0" y="93" font-family="Virgil, Segoe UI Emoji" font-size="20px" fill="#000000" text-anchor="start" style="white-space: pre;" direction="ltr">'CRAYN.OL'</text><text x="0" y="118" font-family="Virgil, Segoe UI Emoji" font-size="20px" fill="#000000" text-anchor="start" style="white-space: pre;" direction="ltr">'SATS.OL'</text></g><g transform="translate(134 222.61701376725193) rotate(0 105 12.5)"><text x="0" y="18" font-family="Virgil, Segoe UI Emoji" font-size="20px" fill="#000000" text-anchor="start" style="white-space: pre;" direction="ltr">norwegian_tickers.csv</text></g><g transform="translate(45 299.61701376725193) rotate(0 336 12.5)"><text x="0" y="18" font-family="Virgil, Segoe UI Emoji" font-size="20px" fill="#000000" text-anchor="start" style="white-space: pre;" direction="ltr">Files containing codes of all nordic stock exchange listed companies.</text></g><g stroke-linecap="round"><g transform="translate(214 92.61701376725193) rotate(0 54.2569200795144 0.38915823884309475)"><path d="M-0.43 -1.07 C8.06 -0.7, 32.1 0.87, 50.33 1.35 C68.56 1.84, 99.25 1.73, 108.94 1.85 M1.55 0.98 C10.44 1.05, 34.66 -0.41, 52.43 -0.58 C70.19 -0.75, 98.81 -0.16, 108.14 -0.05" stroke="#000000" stroke-width="1" fill="none"></path></g></g><g transform="translate(809 226.61701376725193) rotate(0 284 50)"><text x="0" y="18" font-family="Virgil, Segoe UI Emoji" font-size="20px" fill="#000000" text-anchor="start" style="white-space: pre;" direction="ltr">- Fetch stock metrics per ticker from Yahoo Finance API.</text><text x="0" y="43" font-family="Virgil, Segoe UI Emoji" font-size="20px" fill="#000000" text-anchor="start" style="white-space: pre;" direction="ltr">- Score stocks through composite metrics of alg1 </text><text x="0" y="68" font-family="Virgil, Segoe UI Emoji" font-size="20px" fill="#000000" text-anchor="start" style="white-space: pre;" direction="ltr">    based on EBIT, Enterprise Value, and ROE from </text><text x="0" y="93" font-family="Virgil, Segoe UI Emoji" font-size="20px" fill="#000000" text-anchor="start" style="white-space: pre;" direction="ltr">    "the little book that beats the market".</text></g><g transform="translate(431 221) rotate(0 90 12.5)"><text x="0" y="18" font-family="Virgil, Segoe UI Emoji" font-size="20px" fill="#000000" text-anchor="start" style="white-space: pre;" direction="ltr">danish_tickers.csv</text></g><g transform="translate(339 141) rotate(0 0.00004999999998744897 0.00004999999998744897)" stroke="none"><path fill="#000000" d="M 1.57,-1.57 Q 1.57,-1.57 1.77,-1.27 1.98,-0.98 2.09,-0.64 2.20,-0.29 2.19,0.05 2.18,0.41 2.05,0.75 1.93,1.09 1.70,1.37 1.48,1.65 1.18,1.84 0.87,2.04 0.52,2.12 0.18,2.21 -0.17,2.18 -0.53,2.15 -0.86,2.01 -1.19,1.87 -1.46,1.63 -1.73,1.39 -1.90,1.07 -2.08,0.76 -2.15,0.41 -2.21,0.05 -2.17,-0.29 -2.12,-0.65 -1.96,-0.97 -1.80,-1.29 -1.54,-1.54 -1.29,-1.80 -0.97,-1.96 -0.65,-2.12 -0.29,-2.17 0.06,-2.21 0.41,-2.15 0.76,-2.08 1.07,-1.90 1.39,-1.73 1.63,-1.46 1.87,-1.19 2.01,-0.86 2.15,-0.53 2.18,-0.17 2.21,0.18 2.12,0.52 2.03,0.87 1.84,1.18 1.65,1.48 1.37,1.70 1.09,1.93 0.75,2.05 0.41,2.18 0.05,2.19 -0.30,2.20 -0.64,2.09 -0.98,1.98 -1.27,1.77 -1.57,1.56 -1.57,1.57 -1.57,1.57 -1.73,1.35 -1.90,1.14 -2.01,0.90 -2.12,0.66 -2.16,0.39 -2.21,0.13 -2.20,-0.13 -2.18,-0.40 -2.10,-0.65 -2.02,-0.91 -1.88,-1.14 -1.74,-1.36 -1.55,-1.55 -1.36,-1.74 -1.14,-1.88 -0.91,-2.02 -0.65,-2.10 -0.40,-2.18 -0.13,-2.20 0.13,-2.21 0.39,-2.16 0.66,-2.12 0.90,-2.01 1.14,-1.90 1.35,-1.73 1.57,-1.57 1.57,-1.57 L 1.57,-1.57 Z"></path></g><g transform="translate(376 143) rotate(0 0.00004999999998744897 0.00004999999998744897)" stroke="none"><path fill="#000000" d="M 1.57,-1.57 Q 1.57,-1.57 1.77,-1.27 1.98,-0.98 2.09,-0.64 2.20,-0.29 2.19,0.05 2.18,0.41 2.05,0.75 1.93,1.09 1.70,1.37 1.48,1.65 1.18,1.84 0.87,2.04 0.52,2.12 0.18,2.21 -0.17,2.18 -0.53,2.15 -0.86,2.01 -1.19,1.87 -1.46,1.63 -1.73,1.39 -1.90,1.07 -2.08,0.76 -2.15,0.41 -2.21,0.05 -2.17,-0.29 -2.12,-0.65 -1.96,-0.97 -1.80,-1.29 -1.54,-1.54 -1.29,-1.80 -0.97,-1.96 -0.65,-2.12 -0.29,-2.17 0.06,-2.21 0.41,-2.15 0.76,-2.08 1.07,-1.90 1.39,-1.73 1.63,-1.46 1.87,-1.19 2.01,-0.86 2.15,-0.53 2.18,-0.17 2.21,0.18 2.12,0.52 2.03,0.87 1.84,1.18 1.65,1.48 1.37,1.70 1.09,1.93 0.75,2.05 0.41,2.18 0.05,2.19 -0.30,2.20 -0.64,2.09 -0.98,1.98 -1.27,1.77 -1.57,1.56 -1.57,1.57 -1.57,1.57 -1.73,1.35 -1.90,1.14 -2.01,0.90 -2.12,0.66 -2.16,0.39 -2.21,0.13 -2.20,-0.13 -2.18,-0.40 -2.10,-0.65 -2.02,-0.91 -1.88,-1.14 -1.74,-1.36 -1.55,-1.55 -1.36,-1.74 -1.14,-1.88 -0.91,-2.02 -0.65,-2.10 -0.40,-2.18 -0.13,-2.20 0.13,-2.21 0.39,-2.16 0.66,-2.12 0.90,-2.01 1.14,-1.90 1.35,-1.73 1.57,-1.57 1.57,-1.57 L 1.57,-1.57 Z"></path></g><g transform="translate(413 141) rotate(0 0.00004999999998744897 0.00004999999998744897)" stroke="none"><path fill="#000000" d="M 1.57,-1.57 Q 1.57,-1.57 1.77,-1.27 1.98,-0.98 2.09,-0.64 2.20,-0.29 2.19,0.05 2.18,0.41 2.05,0.75 1.93,1.09 1.70,1.37 1.48,1.65 1.18,1.84 0.87,2.04 0.52,2.12 0.18,2.21 -0.17,2.18 -0.53,2.15 -0.86,2.01 -1.19,1.87 -1.46,1.63 -1.73,1.39 -1.90,1.07 -2.08,0.76 -2.15,0.41 -2.21,0.05 -2.17,-0.29 -2.12,-0.65 -1.96,-0.97 -1.80,-1.29 -1.54,-1.54 -1.29,-1.80 -0.97,-1.96 -0.65,-2.12 -0.29,-2.17 0.06,-2.21 0.41,-2.15 0.76,-2.08 1.07,-1.90 1.39,-1.73 1.63,-1.46 1.87,-1.19 2.01,-0.86 2.15,-0.53 2.18,-0.17 2.21,0.18 2.12,0.52 2.03,0.87 1.84,1.18 1.65,1.48 1.37,1.70 1.09,1.93 0.75,2.05 0.41,2.18 0.05,2.19 -0.30,2.20 -0.64,2.09 -0.98,1.98 -1.27,1.77 -1.57,1.56 -1.57,1.57 -1.57,1.57 -1.73,1.35 -1.90,1.14 -2.01,0.90 -2.12,0.66 -2.16,0.39 -2.21,0.13 -2.20,-0.13 -2.18,-0.40 -2.10,-0.65 -2.02,-0.91 -1.88,-1.14 -1.74,-1.36 -1.55,-1.55 -1.36,-1.74 -1.14,-1.88 -0.91,-2.02 -0.65,-2.10 -0.40,-2.18 -0.13,-2.20 0.13,-2.21 0.39,-2.16 0.66,-2.12 0.90,-2.01 1.14,-1.90 1.35,-1.73 1.57,-1.57 1.57,-1.57 L 1.57,-1.57 Z"></path></g><g transform="translate(369 236) rotate(0 0.00004999999998744897 0.00004999999998744897)" stroke="none"><path fill="#000000" d="M 1.57,-1.57 Q 1.57,-1.57 1.77,-1.27 1.98,-0.98 2.09,-0.64 2.20,-0.29 2.19,0.05 2.18,0.41 2.05,0.75 1.93,1.09 1.70,1.37 1.48,1.65 1.18,1.84 0.87,2.04 0.52,2.12 0.18,2.21 -0.17,2.18 -0.53,2.15 -0.86,2.01 -1.19,1.87 -1.46,1.63 -1.73,1.39 -1.90,1.07 -2.08,0.76 -2.15,0.41 -2.21,0.05 -2.17,-0.29 -2.12,-0.65 -1.96,-0.97 -1.80,-1.29 -1.54,-1.54 -1.29,-1.80 -0.97,-1.96 -0.65,-2.12 -0.29,-2.17 0.06,-2.21 0.41,-2.15 0.76,-2.08 1.07,-1.90 1.39,-1.73 1.63,-1.46 1.87,-1.19 2.01,-0.86 2.15,-0.53 2.18,-0.17 2.21,0.18 2.12,0.52 2.03,0.87 1.84,1.18 1.65,1.48 1.37,1.70 1.09,1.93 0.75,2.05 0.41,2.18 0.05,2.19 -0.30,2.20 -0.64,2.09 -0.98,1.98 -1.27,1.77 -1.57,1.56 -1.57,1.57 -1.57,1.57 -1.73,1.35 -1.90,1.14 -2.01,0.90 -2.12,0.66 -2.16,0.39 -2.21,0.13 -2.20,-0.13 -2.18,-0.40 -2.10,-0.65 -2.02,-0.91 -1.88,-1.14 -1.74,-1.36 -1.55,-1.55 -1.36,-1.74 -1.14,-1.88 -0.91,-2.02 -0.65,-2.10 -0.40,-2.18 -0.13,-2.20 0.13,-2.21 0.39,-2.16 0.66,-2.12 0.90,-2.01 1.14,-1.90 1.35,-1.73 1.57,-1.57 1.57,-1.57 L 1.57,-1.57 Z"></path></g><g transform="translate(385 236) rotate(0 0.00004999999998744897 0.00004999999998744897)" stroke="none"><path fill="#000000" d="M 1.57,-1.57 Q 1.57,-1.57 1.77,-1.27 1.98,-0.98 2.09,-0.64 2.20,-0.29 2.19,0.05 2.18,0.41 2.05,0.75 1.93,1.09 1.70,1.37 1.48,1.65 1.18,1.84 0.87,2.04 0.52,2.12 0.18,2.21 -0.17,2.18 -0.53,2.15 -0.86,2.01 -1.19,1.87 -1.46,1.63 -1.73,1.39 -1.90,1.07 -2.08,0.76 -2.15,0.41 -2.21,0.05 -2.17,-0.29 -2.12,-0.65 -1.96,-0.97 -1.80,-1.29 -1.54,-1.54 -1.29,-1.80 -0.97,-1.96 -0.65,-2.12 -0.29,-2.17 0.06,-2.21 0.41,-2.15 0.76,-2.08 1.07,-1.90 1.39,-1.73 1.63,-1.46 1.87,-1.19 2.01,-0.86 2.15,-0.53 2.18,-0.17 2.21,0.18 2.12,0.52 2.03,0.87 1.84,1.18 1.65,1.48 1.37,1.70 1.09,1.93 0.75,2.05 0.41,2.18 0.05,2.19 -0.30,2.20 -0.64,2.09 -0.98,1.98 -1.27,1.77 -1.57,1.56 -1.57,1.57 -1.57,1.57 -1.73,1.35 -1.90,1.14 -2.01,0.90 -2.12,0.66 -2.16,0.39 -2.21,0.13 -2.20,-0.13 -2.18,-0.40 -2.10,-0.65 -2.02,-0.91 -1.88,-1.14 -1.74,-1.36 -1.55,-1.55 -1.36,-1.74 -1.14,-1.88 -0.91,-2.02 -0.65,-2.10 -0.40,-2.18 -0.13,-2.20 0.13,-2.21 0.39,-2.16 0.66,-2.12 0.90,-2.01 1.14,-1.90 1.35,-1.73 1.57,-1.57 1.57,-1.57 L 1.57,-1.57 Z"></path></g><g transform="translate(401 237) rotate(0 0.00004999999998744897 0.00004999999998744897)" stroke="none"><path fill="#000000" d="M 1.57,-1.57 Q 1.57,-1.57 1.77,-1.27 1.98,-0.98 2.09,-0.64 2.20,-0.29 2.19,0.05 2.18,0.41 2.05,0.75 1.93,1.09 1.70,1.37 1.48,1.65 1.18,1.84 0.87,2.04 0.52,2.12 0.18,2.21 -0.17,2.18 -0.53,2.15 -0.86,2.01 -1.19,1.87 -1.46,1.63 -1.73,1.39 -1.90,1.07 -2.08,0.76 -2.15,0.41 -2.21,0.05 -2.17,-0.29 -2.12,-0.65 -1.96,-0.97 -1.80,-1.29 -1.54,-1.54 -1.29,-1.80 -0.97,-1.96 -0.65,-2.12 -0.29,-2.17 0.06,-2.21 0.41,-2.15 0.76,-2.08 1.07,-1.90 1.39,-1.73 1.63,-1.46 1.87,-1.19 2.01,-0.86 2.15,-0.53 2.18,-0.17 2.21,0.18 2.12,0.52 2.03,0.87 1.84,1.18 1.65,1.48 1.37,1.70 1.09,1.93 0.75,2.05 0.41,2.18 0.05,2.19 -0.30,2.20 -0.64,2.09 -0.98,1.98 -1.27,1.77 -1.57,1.56 -1.57,1.57 -1.57,1.57 -1.73,1.35 -1.90,1.14 -2.01,0.90 -2.12,0.66 -2.16,0.39 -2.21,0.13 -2.20,-0.13 -2.18,-0.40 -2.10,-0.65 -2.02,-0.91 -1.88,-1.14 -1.74,-1.36 -1.55,-1.55 -1.36,-1.74 -1.14,-1.88 -0.91,-2.02 -0.65,-2.10 -0.40,-2.18 -0.13,-2.20 0.13,-2.21 0.39,-2.16 0.66,-2.12 0.90,-2.01 1.14,-1.90 1.35,-1.73 1.57,-1.57 1.57,-1.57 L 1.57,-1.57 Z"></path></g><g stroke-linecap="round" transform="translate(457.99995 61.5) rotate(0 56 71.5)"><path d="M0 0 C0 0, 0 0, 0 0 M0 0 C0 0, 0 0, 0 0 M0.01 6.43 C0.79 5.31, 2.69 3.74, 5.58 -0.27 M0.1 6.33 C1.63 4.62, 3.3 2.31, 4.75 0.71 M-0.64 13.44 C2.27 7.53, 8.43 4.3, 10.31 0.5 M0.88 11.53 C5.19 7.36, 8.81 1.85, 9.93 -0.08 M0.97 20.03 C3.31 14.36, 6.68 10.61, 15.69 -1.62 M-0.63 18.49 C2.65 13.88, 7.2 9.92, 16.24 0.82 M-0.53 26.06 C6.78 14.17, 18.14 4.62, 22.57 0.92 M1.14 23.18 C5.1 19.63, 10.16 14.9, 20.68 -0.31 M1.93 29.9 C7.7 21.61, 14.98 12.86, 24.63 0.85 M0.86 29.76 C6.37 25.27, 11.71 18.31, 27.05 0.97 M0.71 37.49 C14.09 23.24, 26.9 6.94, 31.87 -1.54 M-0.44 37.27 C8.05 28.62, 16.77 19.11, 31.82 0.36 M0.29 42.99 C9.96 27.94, 23.15 17.13, 36.19 -0.09 M0.83 42.21 C12.66 27.35, 26.07 13, 37.69 0.29 M-1.77 47.15 C10.22 36.21, 20.21 27.66, 41.59 1.16 M-0.05 48.34 C8.54 39.37, 18.22 28.95, 42.9 0.33 M-1.34 54.06 C14.43 40.51, 27.72 22.9, 45.87 2.16 M0.44 53.81 C14.01 39.62, 26.6 23.43, 46.99 0.72 M-1.99 61.28 C12.04 44.55, 25.88 29.3, 54.8 -1.18 M-0.09 60.66 C19.11 38, 40.15 15.29, 54.1 0.79 M-1.45 68.56 C22.49 41.39, 42.92 14.09, 59.79 1.12 M0.64 68.06 C11.72 53.14, 23.09 39.43, 58.74 0.48 M1.29 72.26 C19.37 49.55, 36.45 29.38, 64.14 1.15 M0.67 72 C13.6 58.53, 26.45 42.26, 63.05 0.75 M1.05 77.57 C22.54 52.37, 44.05 24.33, 68.65 -0.8 M-0.17 80.03 C25.41 50.48, 50.1 19.84, 68.65 1.1 M1.89 85.38 C27.38 55.07, 52.54 26.62, 73.86 -0.22 M-0.61 85.45 C27.33 54.98, 55.64 22.72, 73.84 -0.01 M0.88 92.33 C19.27 70.38, 34.8 51.48, 77.73 1.73 M0.85 91.82 C17.07 70.94, 34.72 52.17, 79.42 0.39 M-0.43 97.61 C20.83 75.55, 39.59 53.24, 85.8 -1.76 M-0.45 97.15 C22.08 74.15, 42.96 47.95, 85.99 0.12 M-0.99 103.26 C19.78 79.19, 42.35 57.32, 88.92 -1.05 M0.7 102.59 C27.89 71.99, 54.32 41.92, 89.69 -0.54 M0.66 108.53 C32.32 73.5, 59.92 37.82, 97.4 -2.04 M0.52 110.25 C28.79 77.01, 58.55 44.79, 95.51 -0.49 M-0.02 114.65 C32.54 78.63, 67.42 41.38, 98.71 -0.02 M0.8 116.29 C30.89 81.21, 61.41 46.45, 101.05 -0.27 M0.09 122.92 C23.13 94.36, 45.55 68.47, 107.68 0.28 M0.69 122.5 C27.12 90.89, 54.36 59.25, 105.83 0.36 M1.3 127.48 C21.94 101.21, 45.19 74.61, 112.17 -1.13 M-0.63 127.42 C24.06 101.34, 47.72 73.18, 111.05 -0.09 M2.08 133.69 C33.23 92.25, 70.06 52.63, 112.63 3.47 M1.04 134.16 C37.25 92.5, 73.33 50.39, 114.23 2.66 M-1.97 138.37 C37.36 100.66, 73.05 55.85, 113.74 8.88 M-0.95 141.02 C25.42 111.24, 47.85 83.98, 114.96 7.31 M2.72 143.16 C42.66 97.48, 82.47 47.22, 115.23 12.72 M0.81 144.29 C47.3 93.44, 92.88 41.94, 114.81 15.23 M8.06 145.79 C33.41 116.99, 58.44 87.88, 115.62 19.32 M7.21 143.88 C40.76 103.22, 75.26 64.57, 115.17 19.69 M13.28 143 C48.26 102.43, 85.08 60.39, 115.15 28.02 M11.77 143.69 C36.04 114.6, 62.92 85.79, 115.25 26.59 M18.39 142.2 C49.99 105.05, 81.12 71.71, 115.3 31.95 M17.13 143.67 C54.64 102.34, 91.13 60.18, 113.72 32.65 M22.55 143.41 C48.07 115.73, 73.65 86.63, 113.8 38.35 M23.56 145.11 C54.13 109.56, 84.94 72.41, 114.79 38.12 M29.62 143.98 C46.56 119.52, 66.82 97.07, 113.54 46.92 M27.58 143.85 C51.87 116.37, 76.63 88.87, 115.27 44.56 M33.1 144.95 C53.94 120.23, 75.94 95.06, 116.17 50.58 M33 143.99 C65.4 106.66, 97.51 70.06, 115.16 49.98 M39.16 143.36 C54.46 124.63, 71.53 104.14, 115.72 57.57 M39.02 144.64 C63.01 116.84, 88.98 87.57, 115.47 56.37 M46.11 143.05 C66.7 119.61, 88.59 94.31, 116.19 64.23 M43.83 144.09 C60.39 126.33, 76.74 106.97, 114.85 62.89 M48.09 142.74 C65.84 125.03, 79.39 110.67, 116.47 69.36 M49.39 144.33 C67.96 124.31, 85.11 104.59, 114.6 69.58 M55.32 146.08 C76.93 121.92, 96.84 94.82, 113.36 74.49 M55.74 144.47 C74.28 121.82, 92.17 100.66, 114.8 76.11 M61.72 145.7 C71.6 132.77, 84.07 118.81, 113.04 82.7 M59.75 145.25 C73.47 127.31, 88.92 111.54, 113.87 81.97 M65.11 145.29 C81.18 125.96, 97.49 103.54, 114.8 86.7 M65.4 144.47 C77.37 129, 90.73 114.48, 115.41 86.95 M70.93 143.68 C86.8 126.44, 103.73 106.57, 114.57 95.63 M70.59 145.51 C83.41 129.85, 97.32 113.32, 113.79 93.37 M76.41 144.86 C83.02 133.01, 94.35 122.03, 115.88 99.35 M75.4 144.74 C87.12 131.7, 97.64 120.35, 114.21 98.78 M82.23 146.07 C95.92 128.04, 109.1 112.67, 114.82 106.83 M80.88 144.04 C89.92 135.42, 97.17 125.84, 113.79 105.67 M84.76 143.86 C98.37 133.9, 108.43 118.19, 113.57 110.85 M87.32 144.22 C94.92 134.51, 104.42 123.14, 114.18 112.73 M91.71 146.15 C98.98 135.72, 109.89 124.66, 114.12 118.17 M91.04 145.55 C99.05 136.83, 105.53 129.2, 115.31 118.29 M98.32 142.27 C102.85 139.56, 106.66 134.43, 115.76 126.27 M96.66 145.16 C103.79 137.27, 109.9 129, 114.07 125.53 M103.01 143.16 C104.11 141.48, 108.99 139.8, 116.02 129.7 M101.94 143.61 C107.46 138.9, 112.61 133.48, 115.33 130.21 M107.85 143.56 C110.84 140.92, 111.85 139.78, 114.2 136.45 M107.9 144.12 C110.49 141.7, 113 138.14, 114.28 137" stroke="#868e96" stroke-width="0.5" fill="none"></path><path d="M-1.48 1.38 C23.54 2.24, 47.25 1.19, 113.52 -1.25 M0.33 0.01 C30.61 -0.45, 63.37 -0.8, 112.08 0.74 M113.09 -1.85 C111.16 54.45, 113.82 105.13, 110.67 144.6 M112.46 0.69 C111.8 56.39, 111.62 111.34, 112.13 142.23 M110.25 141.77 C80.03 141.22, 50.73 143.44, -0.81 144.68 M112.59 143.27 C78.9 142.85, 47.34 142.44, 0.54 142.34 M-0.71 144.96 C-1.88 94.12, 0.43 45.09, -1.75 -1.09 M-0.17 142.23 C0.69 93.25, 0.13 43.58, -0.77 -0.54" stroke="#000000" stroke-width="1" fill="none"></path></g><g transform="translate(463.99995 67.5) rotate(0 49.5 62.5)"><text x="0" y="18" font-family="Virgil, Segoe UI Emoji" font-size="20px" fill="#000000" text-anchor="start" style="white-space: pre;" direction="ltr">Tickers</text><text x="0" y="43" font-family="Virgil, Segoe UI Emoji" font-size="20px" fill="#000000" text-anchor="start" style="white-space: pre;" direction="ltr">'JYSK.CO'</text><text x="0" y="68" font-family="Virgil, Segoe UI Emoji" font-size="20px" fill="#000000" text-anchor="start" style="white-space: pre;" direction="ltr">'OSSR.CO'</text><text x="0" y="93" font-family="Virgil, Segoe UI Emoji" font-size="20px" fill="#000000" text-anchor="start" style="white-space: pre;" direction="ltr">'HART.CO'</text><text x="0" y="118" font-family="Virgil, Segoe UI Emoji" font-size="20px" fill="#000000" text-anchor="start" style="white-space: pre;" direction="ltr">'MTHH.CO'</text></g><g stroke-linecap="round"><g transform="translate(458.99995 91.5) rotate(0 54.46292953593655 0.6728988442570056)"><path d="M0.83 -0.57 C9.72 -0.42, 34.2 -0.44, 52.25 -0.03 C70.3 0.38, 99.78 1.78, 109.12 1.91 M-0.19 1.75 C8.69 2.09, 33.59 1.25, 51.69 0.97 C69.8 0.68, 99.01 -0.08, 108.41 0.05" stroke="#000000" stroke-width="1" fill="none"></path></g></g><g stroke-linecap="round" transform="translate(10 10) rotate(0 367 233.5)"><path d="M204.19 23.4 C224.75 12.65, 255.57 9.84, 282.31 5.82 C309.05 1.8, 337.27 -0.64, 364.63 -0.72 C391.99 -0.79, 419.87 1.6, 446.45 5.38 C473.04 9.16, 499.51 14.72, 524.12 21.97 C548.73 29.21, 572.95 38.11, 594.12 48.83 C615.29 59.55, 633.96 72.61, 651.15 86.29 C668.35 99.97, 685.15 115.26, 697.27 130.88 C709.39 146.5, 717.63 163.21, 723.88 180.02 C730.14 196.83, 734.41 214.51, 734.8 231.74 C735.18 248.96, 732.07 266.44, 726.2 283.36 C720.32 300.28, 711.33 317.55, 699.56 333.26 C687.78 348.96, 672.33 364.13, 655.54 377.58 C638.76 391.03, 620.11 403.18, 598.85 413.94 C577.59 424.7, 552.45 434.49, 527.98 442.15 C503.51 449.8, 478.3 455.68, 452.04 459.88 C425.78 464.08, 397.84 467.18, 370.44 467.36 C343.03 467.55, 314.23 464.9, 287.62 461 C261 457.1, 235.28 451.16, 210.75 443.96 C186.22 436.77, 161.82 428.31, 140.43 417.82 C119.04 407.33, 99.43 394.59, 82.41 381.04 C65.38 367.49, 50.47 352.02, 38.29 336.54 C26.11 321.06, 15.85 304.89, 9.33 288.18 C2.81 271.46, -0.56 253.62, -0.82 236.24 C-1.08 218.87, 1.94 200.84, 7.78 183.93 C13.61 167.01, 22.39 150.57, 34.19 134.78 C45.99 118.98, 61.75 103, 78.57 89.16 C95.38 75.33, 109.62 63.81, 135.09 51.76 C160.55 39.7, 210.69 23, 231.34 16.81 C251.98 10.62, 256.92 11.14, 258.97 14.6 M350.28 0.29 C375.87 -4.26, 405.88 1.36, 432.53 4.33 C459.18 7.3, 485.18 11.51, 510.19 18.1 C535.19 24.69, 560.4 33.76, 582.55 43.89 C604.7 54.02, 625.02 65.52, 643.11 78.87 C661.2 92.21, 678.2 108.72, 691.12 123.98 C704.04 139.25, 713.32 153.83, 720.64 170.44 C727.97 187.06, 734 206.28, 735.06 223.66 C736.13 241.04, 732.06 257.93, 727.03 274.73 C722.01 291.53, 715.49 308.61, 704.93 324.45 C694.38 340.29, 679.82 355.55, 663.71 369.77 C647.59 384, 628.5 398.39, 608.22 409.81 C587.95 421.23, 566.14 430.18, 542.05 438.31 C517.97 446.44, 490.33 453.81, 463.72 458.6 C437.12 463.39, 409.34 466.49, 382.43 467.04 C355.51 467.59, 328.85 465.12, 302.24 461.91 C275.63 458.71, 248.09 454.21, 222.8 447.81 C197.5 441.4, 172.59 433.75, 150.47 423.48 C128.35 413.2, 107.81 399.51, 90.08 386.16 C72.35 372.81, 56.88 358.37, 44.09 343.37 C31.3 328.37, 20.8 312.57, 13.34 296.16 C5.89 279.75, 0.73 262.51, -0.64 244.89 C-2.02 227.27, 0.27 207.43, 5.11 190.44 C9.95 173.46, 17.8 158.7, 28.42 142.99 C39.04 127.28, 52.89 110.52, 68.83 96.17 C84.78 81.82, 103.21 68.16, 124.09 56.87 C144.97 45.57, 170.03 36.66, 194.1 28.42 C218.17 20.18, 242.23 12.17, 268.49 7.42 C294.75 2.68, 337.96 0.44, 351.66 -0.03 C365.36 -0.49, 350.51 0.49, 350.69 4.63" stroke="#000000" stroke-width="1" fill="none"></path></g><g stroke-linecap="round"><g transform="translate(703 212) rotate(0 128.24111420772965 -27.057396759618655)"><path d="M-0.25 -0.83 C42.57 -9.7, 214.04 -44.7, 256.73 -53.8 M1.82 1.35 C44.56 -7.8, 213.96 -46.15, 256.16 -55.47" stroke="#000000" stroke-width="1" fill="none"></path></g><g transform="translate(703 212) rotate(0 128.24111420772965 -27.057396759618655)"><path d="M229.51 -38.08 C239.65 -44.06, 244.1 -46.57, 256.96 -56.87 M230.78 -39.97 C237.45 -43.17, 245.12 -48.33, 255.6 -55.46" stroke="#000000" stroke-width="1" fill="none"></path></g><g transform="translate(703 212) rotate(0 128.24111420772965 -27.057396759618655)"><path d="M225.03 -58.11 C236.35 -58.36, 242.08 -55.15, 256.96 -56.87 M226.3 -59.99 C234.23 -57.83, 243.09 -57.65, 255.6 -55.46" stroke="#000000" stroke-width="1" fill="none"></path></g></g><g stroke-linecap="round"><g transform="translate(1182 152) rotate(0 94.21377583297897 15.65323372972199)"><path d="M0.17 0.71 C31.75 5.77, 157.82 26.31, 189.63 31.27 M-1.2 0.04 C30.17 4.63, 156.48 24.05, 188.49 29.29" stroke="#000000" stroke-width="1" fill="none"></path></g><g transform="translate(1182 152) rotate(0 94.21377583297897 15.65323372972199)"><path d="M160.23 34.41 C168.65 34.93, 176.5 33.29, 187.78 29.88 M159.27 34.66 C166.54 34.11, 172.63 31.91, 188.65 28.53" stroke="#000000" stroke-width="1" fill="none"></path></g><g transform="translate(1182 152) rotate(0 94.21377583297897 15.65323372972199)"><path d="M163.43 14.14 C171.01 21, 177.85 25.7, 187.78 29.88 M162.47 14.39 C168.81 18.82, 174.11 21.62, 188.65 28.53" stroke="#000000" stroke-width="1" fill="none"></path></g></g><g stroke-linecap="round" transform="translate(1419 101) rotate(0 138 94)"><path d="M0 0 C0 0, 0 0, 0 0 M0 0 C0 0, 0 0, 0 0 M0.37 6.84 C2.01 5.42, 3.53 3.62, 4.61 0.47 M-0.46 6.55 C1.28 5.03, 3.13 3.01, 5.37 0.57 M-0.46 13.12 C1.24 9.49, 6.49 7.55, 9.92 -1.09 M0.56 12.3 C3.85 8.04, 7.54 4.64, 10.86 0.7 M-1.68 17.32 C4.93 14.46, 10.36 6.75, 14.35 -1.41 M-0.44 18.51 C4.76 13.44, 7.6 10.2, 15.05 1.22 M1.63 23.29 C8.59 14.04, 16.64 5.46, 19.35 0.95 M0.78 24.28 C4.31 17.56, 10.43 11.94, 20.72 -0.02 M0.79 29.94 C9.82 18.47, 22.5 5.99, 26.71 1.25 M0.41 30.61 C11.24 17.55, 20.27 7.1, 26.76 -0.57 M-2.16 36.15 C9.38 28.24, 18.85 16.76, 32.2 0.95 M-1.18 36.04 C11.35 23.45, 21.96 12.62, 31.13 -0.04 M-0.48 44.31 C11.77 31.24, 19.78 19.48, 38.23 0.48 M0.13 43.04 C13.03 29.24, 24.68 15.87, 36.15 1.16 M1.33 49.47 C17.16 30.88, 33.33 12.71, 43.13 -1.93 M0.73 49.23 C17.67 29.4, 33.81 10.32, 43.21 -0.18 M0.21 55.01 C10.52 40.58, 23.55 31.92, 45.95 -1.22 M-0.66 54.23 C18.8 33.57, 37.7 12, 48.04 0.99 M-0.66 61.61 C18 39.75, 36.3 18.58, 51.84 1.34 M0.24 60.63 C21.23 37.28, 42.53 12.84, 53.34 -0.01 M0.81 66.93 C13.44 52.28, 23.87 38.33, 56.8 -0.79 M-0.69 66.82 C11.73 53.78, 24.74 41.39, 58.08 -0.53 M1.7 74.78 C19.35 52.99, 38.74 27.81, 65 -0.62 M0.56 72.23 C24.88 44.74, 48.62 16.04, 64.17 -0.61 M0.16 78.32 C14.12 63.06, 29.63 47.87, 69.61 -0.56 M-0.41 79.64 C20.97 56.25, 41.09 31.99, 69.7 0.1 M2.1 85.75 C21.56 63.7, 42.13 40.09, 74.13 -1.59 M0.68 84.95 C16.24 64.65, 33.27 46.95, 73.65 0.35 M0 91.26 C31.8 53.98, 65 18.19, 81.14 1.74 M-0.97 91.22 C23.93 64, 46.91 37.68, 79.13 0.33 M-0.47 96.68 C32.63 58.16, 69.8 20.32, 85.69 0.23 M-0.25 98.44 C24.21 72.01, 47.59 44.69, 84.06 -0.32 M1.67 102.69 C19.45 76.57, 45.43 52.5, 88.04 -1.04 M-0.55 103.81 C27.23 71.87, 55.65 39.23, 90.41 0.56 M-1.19 110.03 C20.21 82.27, 42.08 59.17, 95.03 0.24 M0.67 109.04 C23.64 81.24, 49.87 51.04, 94.93 -0.36 M-0.61 115.14 C40.44 70.06, 79.44 24.65, 100.86 0.54 M-0.02 115.1 C33.63 77.43, 65.7 38.88, 100.36 -0.84 M0.73 123.14 C24.84 92.15, 52.06 61.54, 104.42 1.44 M-0.83 121.29 C27.92 91.16, 56.62 59.33, 106.13 -1.07 M1.65 127.48 C35.6 89.06, 70.73 44.79, 110.08 -1.46 M-0.64 127.99 C29.42 91.44, 60.93 55.05, 111.6 -0.57 M-1.38 135.16 C47.9 83.2, 90.18 30.03, 116.37 1.17 M-0.56 133.94 C34 95.49, 69.34 56.22, 116.13 0.48 M-0.2 141.92 C46.15 87.2, 92.18 38.2, 120.06 1.58 M-0.39 140.57 C41.14 91.33, 82.19 44.19, 121.55 0.63 M-0.27 145.87 C36.2 102.78, 74.32 62.77, 126.26 2.12 M0.45 145.7 C37.72 102.12, 73.81 60.8, 127.69 -0.61 M-1.67 150.71 C40.96 107.85, 79.68 61.14, 131.23 0.8 M-0.81 151.73 C31.69 115.94, 62.9 81.56, 133.34 -0.91 M-1.29 158.42 C30.63 124.97, 62.69 87.71, 136.56 -1.03 M0.27 158.95 C55.18 97.54, 108.45 35.02, 136.98 0.46 M-1.27 165.94 C37.02 122.68, 72.83 79.24, 141.57 0.27 M0.11 164.7 C47.19 111.51, 92.6 59.59, 143.24 0.58 M1.27 170.2 C32.2 132.6, 64.39 94.93, 148.66 0.54 M-0.04 169.99 C30.17 134.77, 63.43 98.77, 148.71 0.27 M1.48 177.24 C44.21 123.04, 87.24 72.74, 153.03 -1.49 M1.09 175.89 C47.57 121.06, 95.53 66.43, 152.98 0.66 M0.69 183.27 C47.55 128.66, 94.23 73.9, 158.15 -1.24 M0.08 183.52 C60.24 111.32, 121.44 42.26, 159.57 0.66 M1.19 189.93 C34.07 148.63, 68.17 108.25, 165.52 1.38 M0.4 188.27 C58.14 122.82, 117.32 54.99, 164.7 0.35 M5.46 189.23 C46.28 143.12, 83.47 98.43, 169.85 -0.82 M6.64 188.12 C41.52 149.51, 74.87 111.16, 170.13 0.3 M12.28 190.02 C62.11 128.65, 113.3 69.18, 175.71 0.23 M10.41 187.93 C71.19 118.4, 131.11 50.69, 175.39 -0.31 M16.51 186.96 C51.99 143.53, 89.28 100.83, 179.29 -1.42 M16.65 188.18 C50.43 149.74, 82.66 112.89, 180.36 0.76 M22.18 188.96 C66.55 136.72, 110.73 86.69, 185.11 0.16 M21.82 188.05 C67.12 136.15, 112.11 84.73, 186.04 0.29 M26.52 189.37 C89.99 114.16, 153.9 38.36, 191 0.06 M27.78 188.5 C88.21 117.5, 148.59 48.37, 190.43 0.66 M31.18 189.12 C73.44 143.47, 111.11 96.23, 195.1 -1.43 M32.81 188.45 C95.73 115.65, 158.75 44.22, 195.85 -0.35 M38.6 187.33 C87.03 132.66, 135.68 74.31, 200.41 1.43 M36.57 188.52 C88.97 129.39, 142.16 67.08, 201.58 -0.16 M43.63 187.59 C103.54 122.72, 162.2 54.2, 205.4 -0.16 M42.64 188.48 C80.17 146.68, 116.2 105.23, 206.28 0.11 M49.55 189.56 C85.87 145.55, 126.64 101.96, 211.87 0.18 M48.71 188.63 C104.04 124.44, 161.77 58.72, 212.03 0.11 M53.14 187.7 C91.05 144.31, 129.21 102.19, 218.86 0.7 M54.07 187.89 C99.43 136.13, 144.16 83.75, 216.99 -0.08 M57.42 189.54 C105.13 131.33, 157.08 75.28, 223.94 1.65 M57.95 188.99 C115.26 126.36, 169.61 61.23, 222.69 -0.39 M63.89 187.52 C105.7 140.73, 149.8 91.59, 226.88 -1.65 M64.38 187.59 C109.14 138.39, 154 86.95, 228.3 -1.08 M68.98 190.3 C130.18 123.31, 188.39 55.1, 234.28 1.04 M69.14 188.97 C116.42 135.06, 162.17 80.4, 233.07 0.08 M75.88 188.08 C124.09 129.12, 175.58 70.79, 239.68 -0.61 M74.38 188.9 C120.54 136.26, 166.24 83.37, 238.07 0.09 M81.16 187.17 C124.62 135.87, 167.55 85.15, 244.55 1.38 M80.46 188.73 C141.04 120.03, 199.89 51.13, 243.77 -0.44 M86.61 188.42 C124.58 142.75, 166.21 98.34, 248.16 -1.15 M85.91 187.73 C121.76 144.57, 158.87 101.7, 248.43 0.88 M89.15 189.05 C132.94 140.64, 172.36 91.9, 255.54 -1.16 M90.7 188.37 C134.09 141.23, 175.6 91.93, 253.95 -0.27 M95.92 187.26 C158.83 116.06, 221.88 41.98, 260.79 -0.59 M96.17 188.6 C154.88 118.95, 215.2 50.02, 259.34 0.12 M101.13 187.34 C154.3 124.79, 209.86 60.13, 265.49 0.69 M101.79 188.8 C142.6 143.08, 182.23 96.32, 265.51 0.19 M107.69 187.9 C149.07 140.63, 191.79 94.49, 268.6 0.22 M106.69 187.36 C142.03 150.47, 174.24 111.41, 270.46 0.75 M110.53 187.01 C161.08 133.45, 208.61 81.13, 275.02 0.8 M111.38 189.23 C159.5 137.14, 204.14 83.66, 275.67 -0.74 M118.34 186.74 C153.39 143.25, 193.59 100.25, 280.25 1.52 M117.6 188.43 C149.23 149.67, 183.16 112.47, 279.32 2.23 M123.78 188.59 C166.63 133.72, 215.28 80.81, 277.61 9.96 M121.86 188.01 C175.6 126.65, 228.73 66.95, 278.1 8.79 M128.33 188.08 C173.07 135.21, 219.95 79.92, 278.4 15.95 M128.48 187.56 C169.32 141.48, 207.67 96.66, 279.5 14.15 M132.37 189.94 C174.17 141.65, 218.65 90.91, 279.06 20.11 M133.06 188.41 C172.54 141.14, 213.21 95.03, 278.2 21.02 M137.08 189.37 C184.23 136.95, 226.24 84.17, 280.57 27.65 M139.09 187.5 C169.4 152.35, 199.71 117.22, 279.49 26.29 M144.45 187.33 C175.59 153.69, 204.17 118.1, 279.89 34.52 M142.84 187.82 C190.11 132.92, 237.39 79.43, 278.18 32.28 M147.66 190.02 C187.9 143.25, 222.7 101.12, 280.03 38.18 M147.85 187.85 C197.12 134.81, 244.86 79.34, 279.37 38.84 M152.47 188.13 C202.41 134.91, 249.09 79.46, 280.53 45.24 M155.11 188.8 C192.08 144.56, 229.37 100.12, 279.73 44.03 M157.36 189.97 C202.92 141.83, 242.6 91.17, 277.94 49.75 M159.28 188.47 C200.18 140.94, 240.26 95.2, 278.93 50.72 M163.47 188.03 C196.23 150.47, 226.04 115.14, 277.94 56.02 M164.29 187.37 C198.57 151.59, 229.84 112.92, 278.09 57.77 M169.48 189.75 C209.88 140.76, 253.8 92.43, 280.35 63.78 M169.45 188.68 C194 162.26, 217.09 134.54, 278.94 62.97 M174.95 186.52 C211.4 149.78, 242.79 108.51, 279.78 67.86 M175.2 189.24 C210.95 147.93, 246.06 107.63, 277.9 69.84 M179.1 188.54 C215.31 147.27, 249.91 109.13, 277.68 75.38 M181.3 189.62 C203.18 162.7, 225.18 138.37, 278.56 74.88 M184.17 189.83 C209.37 161.14, 231.8 133.94, 280.48 80.92 M186.56 189.11 C213.19 156.53, 240.32 123.55, 279.17 81.87 M190.19 187.12 C209.89 167.08, 231.17 145.56, 278.22 88.23 M191.07 187.83 C211.81 164.58, 233.72 140.41, 279.73 87.66 M198.31 188.79 C212.51 166.1, 230.17 146.82, 279.39 93.18 M195.9 187.66 C221.77 159.46, 246.48 131.48, 278.19 94.19 M201.64 189.85 C217.57 170.3, 233.72 152.22, 277.54 101.4 M201.31 188.35 C221.81 164.24, 242.71 140.87, 277.54 100.27 M208.48 188.81 C226.53 168.14, 244.87 145.02, 277.43 107.49 M206.5 188.51 C225.56 166.96, 243.34 146.82, 279.26 105.85 M213.24 186.7 C233.67 166.14, 251.99 139.4, 279.08 112.25 M211.83 187.65 C237.07 159.08, 263.41 131.33, 277.86 113.34 M219.66 187.91 C238.12 163.07, 261.22 138.23, 278.44 118.28 M218.49 187.23 C241.4 161.5, 265.25 132.42, 278.93 118.33 M223.69 187.23 C236.51 173.87, 247.85 157.82, 280.2 123.02 M222.78 188.66 C244.56 164.9, 265.41 139.1, 278.36 124.7 M228.76 186.69 C241.72 170.34, 256.12 153.02, 278.47 130.34 M227.77 188.36 C245.75 169.87, 262.63 149.05, 278.41 131.33 M232.61 186.59 C242.95 176.88, 256.15 161.94, 280.84 135.79 M233.57 187.76 C248.73 172.33, 261.66 155.57, 278.2 137.41 M238.59 186.35 C254.57 168.52, 270.73 153.03, 278.49 141.77 M239.03 188.37 C255.55 171.42, 269.42 152.33, 279.19 142.74 M242.5 187.53 C253.46 176.17, 263.95 162.62, 280.84 147.22 M243.94 187.78 C258.53 171.81, 270.96 156.13, 278.29 149.46 M251.86 186.68 C262.5 177.06, 271.11 163.09, 278.37 154.55 M250.78 188.71 C256.77 179.14, 265.62 171.17, 278.05 154.16 M256.78 190.38 C262.3 178.77, 268.53 172.05, 277.29 159.33 M254.91 189.02 C261.1 182.36, 266.89 175.47, 277.72 161.56 M260.54 188.83 C266.3 178.98, 274.27 173.05, 277.58 165.47 M259.65 189.51 C267.13 180.82, 273.05 173.38, 278.76 166.89 M265.77 187.08 C269.67 184.52, 272.92 178.75, 277.15 174.46 M265.79 188.2 C268.61 184.58, 272.28 179.72, 279.33 173.11 M270.48 189.74 C272.24 186.68, 275.57 185.04, 279.96 180.26 M270.21 189.32 C273.05 186.2, 275 183.7, 278.6 179.44" stroke="#40c057" stroke-width="0.5" fill="none"></path><path d="M1.05 -0.15 C79.14 -2.01, 158.04 -2.94, 276.74 1.05 M0.06 -0.09 C76.95 -0.47, 155.86 0.25, 276.15 -0.19 M275.63 0.05 C276.89 70.28, 275.44 139.25, 276.86 187.8 M276.84 0.44 C277.84 67.6, 278.33 136.45, 276.71 187.6 M274.83 188.91 C192.8 190.7, 109.96 189.38, 0.08 189 M276.72 188.28 C169.43 187.17, 62.31 187.72, -0.01 188.49 M0.3 188.75 C-2.89 127.41, -2.37 68.82, -1.8 -0.31 M0.79 188.52 C0.88 125.26, 0.44 62.82, 0.88 0.33" stroke="#000000" stroke-width="1" fill="none"></path></g><g transform="translate(1479 106) rotate(0 72 12.5)"><text x="0" y="18" font-family="Virgil, Segoe UI Emoji" font-size="20px" fill="#000000" text-anchor="start" style="white-space: pre;" direction="ltr">Ranked stocks</text></g><g transform="translate(1432 141) rotate(0 128 25)"><text x="0" y="18" font-family="Virgil, Segoe UI Emoji" font-size="20px" fill="#000000" text-anchor="start" style="white-space: pre;" direction="ltr">ticker    metrics    score</text><text x="0" y="43" font-family="Virgil, Segoe UI Emoji" font-size="20px" fill="#000000" text-anchor="start" style="white-space: pre;" direction="ltr"></text></g><g stroke-linecap="round"><g transform="translate(1421 135) rotate(0 135.645513968449 0.34773949239476565)"><path d="M0.39 0.49 C45.56 0.59, 227.06 1.32, 272.15 1.15 M-0.86 -0.3 C44.06 -0.55, 225.59 -0.51, 271.28 -0.37" stroke="#000000" stroke-width="1" fill="none"></path></g></g><g stroke-linecap="round"><g transform="translate(1417 169) rotate(0 138.62856796644633 -0.2050191462412272)"><path d="M-0.84 -1.02 C45.52 -0.89, 231.75 0.12, 278.1 0.43 M0.92 1.06 C47.23 0.85, 231.78 -1.11, 277.72 -1.47" stroke="#000000" stroke-width="1" fill="none"></path></g></g><g transform="translate(1425 208) rotate(0 49.5 12.5)"><text x="0" y="18" font-family="Virgil, Segoe UI Emoji" font-size="20px" fill="#000000" text-anchor="start" style="white-space: pre;" direction="ltr">'EQNR.OL'</text></g><g transform="translate(1424 241) rotate(0 48.5 12.5)"><text x="0" y="18" font-family="Virgil, Segoe UI Emoji" font-size="20px" fill="#000000" text-anchor="start" style="white-space: pre;" direction="ltr">'AKER.OL'</text></g><g transform="translate(1420 179) rotate(0 63.5 12.5)"><text x="0" y="18" font-family="Virgil, Segoe UI Emoji" font-size="20px" fill="#000000" text-anchor="start" style="white-space: pre;" direction="ltr">'CRAYN.OL'  </text></g><g transform="translate(1552 182) rotate(0 23.5 37.5)"><text x="0" y="18" font-family="Virgil, Segoe UI Emoji" font-size="20px" fill="#000000" text-anchor="start" style="white-space: pre;" direction="ltr">- - -</text><text x="0" y="43" font-family="Virgil, Segoe UI Emoji" font-size="20px" fill="#000000" text-anchor="start" style="white-space: pre;" direction="ltr">- - -</text><text x="0" y="68" font-family="Virgil, Segoe UI Emoji" font-size="20px" fill="#000000" text-anchor="start" style="white-space: pre;" direction="ltr">- - -</text></g><g transform="translate(1651 181) rotate(0 17.5 37.5)"><text x="0" y="18" font-family="Virgil, Segoe UI Emoji" font-size="20px" fill="#000000" text-anchor="start" style="white-space: pre;" direction="ltr">5</text><text x="0" y="43" font-family="Virgil, Segoe UI Emoji" font-size="20px" fill="#000000" text-anchor="start" style="white-space: pre;" direction="ltr">36</text><text x="0" y="68" font-family="Virgil, Segoe UI Emoji" font-size="20px" fill="#000000" text-anchor="start" style="white-space: pre;" direction="ltr">198</text></g><g transform="translate(1424 304.5) rotate(0 137.5 12.5)"><text x="0" y="18" font-family="Virgil, Segoe UI Emoji" font-size="20px" fill="#000000" text-anchor="start" style="white-space: pre;" direction="ltr">rank_norwegian_tickers.xlsx</text></g><g transform="translate(1376 356) rotate(0 178.5 25)"><text x="0" y="18" font-family="Virgil, Segoe UI Emoji" font-size="20px" fill="#000000" text-anchor="start" style="white-space: pre;" direction="ltr">Output metrics + stock scores per </text><text x="0" y="43" font-family="Virgil, Segoe UI Emoji" font-size="20px" fill="#000000" text-anchor="start" style="white-space: pre;" direction="ltr">country and save to -.xlsx format.</text></g><g transform="translate(928 392) rotate(0 92 17.5)"><text x="0" y="25" font-family="Virgil, Segoe UI Emoji" font-size="28px" fill="#000000" text-anchor="start" style="white-space: pre;" direction="ltr">Alg1: Screener</text></g><g stroke-linecap="round" transform="translate(807 446) rotate(0 242 71.5)"><path d="M-3.13 3.81 L482.39 -3.07 L486.26 143.13 L2.21 142.18" stroke="none" stroke-width="0" fill="#ffffff"></path><path d="M0.01 -0.09 C135.43 0.14, 270.36 -1.75, 482.56 -1.13 M-0.52 0.29 C193.42 -0.12, 385.94 -0.02, 483.39 0.02 M481.81 -3.34 C489.49 45.41, 483 88.7, 484.5 144.35 M484 -1.42 C486.46 56.08, 486.32 110.52, 483.6 141.91 M483 142.81 C332.73 139.14, 184.61 140.88, -1.2 142.59 M483.95 142.45 C329.87 147.34, 173.61 146.28, 0.48 143.81 M-3.63 140.66 C0.28 106.18, -2.17 73.76, -3.59 3.51 M-0.87 142.49 C0.59 105.4, 2.27 68.55, -1.63 1.95" stroke="#000000" stroke-width="1" fill="none"></path></g><g transform="translate(829 458) rotate(0 235 60)"><text x="0" y="14" font-family="Virgil, Segoe UI Emoji" font-size="16px" fill="#000000" text-anchor="start" style="white-space: pre;" direction="ltr">1. Rank each stock by (EBIT 3y average)/EV. </text><text x="0" y="34" font-family="Virgil, Segoe UI Emoji" font-size="16px" fill="#000000" text-anchor="start" style="white-space: pre;" direction="ltr">    Largest gets 1 point, second largest 2, etc.</text><text x="0" y="54" font-family="Virgil, Segoe UI Emoji" font-size="16px" fill="#000000" text-anchor="start" style="white-space: pre;" direction="ltr">2. Rank each stock by ROC or ROE. </text><text x="0" y="74" font-family="Virgil, Segoe UI Emoji" font-size="16px" fill="#000000" text-anchor="start" style="white-space: pre;" direction="ltr">    Largest gets 1 point, second largest 2, etc.</text><text x="0" y="94" font-family="Virgil, Segoe UI Emoji" font-size="16px" fill="#000000" text-anchor="start" style="white-space: pre;" direction="ltr">3. Get each stocks final score by summing over all points. </text><text x="0" y="114" font-family="Virgil, Segoe UI Emoji" font-size="16px" fill="#000000" text-anchor="start" style="white-space: pre;" direction="ltr">    The smaller final score the better. </text></g></svg>